<svg width="934" height="779" viewBox="0 0 934 779" fill="none" xmlns="http://www.w3.org/2000/svg">
<g filter="url(#filter0_d_10_6)">
<path d="M109.038 594.111C110.238 600.911 111.204 621.944 111.538 631.611C111.648 634.611 107.538 637.111 103.538 639.111C99.5376 641.111 68.5376 658.111 67.0376 659.111C54.5376 665.111 42.0376 680.111 40.0376 683.611C38.0376 687.111 27.0376 701.611 18.0376 714.111C9.03756 726.611 4.53756 758.111 5.03756 764.611C5.53756 771.111 6.03756 769.611 8.03756 770.111C8.53756 766.611 13.0376 757.611 14.0376 755.611C21.0376 741.111 42.0376 728.111 45.0376 725.111C48.0376 722.111 53.5376 720.611 55.5376 720.611C64.0376 721.111 72.5376 718.611 77.0376 715.611C81.5376 712.611 82.0376 708.611 83.5376 708.611C89.5376 709.111 88.0376 707.611 90.0376 706.111C92.0376 704.611 98.0376 705.611 104.038 706.111C110.038 706.611 121.538 696.611 122.538 693.611C123.538 690.611 124.538 689.111 126.038 690.111C141.538 704.611 161.038 698.611 161.038 697.611C161.038 696.611 162.038 695.111 164.538 697.611C167.038 700.111 171.038 701.111 179.038 701.611C187.038 702.111 186.538 702.611 188.038 702.611C191.038 707.611 198.538 709.611 202.538 710.111C206.538 710.611 208.538 713.111 210.538 717.111C212.538 721.111 215.538 721.611 220.538 721.611C224.538 721.611 225.871 722.944 226.038 723.611C227.204 725.278 230.138 729.411 232.538 732.611C242.538 744.611 244.038 741.611 243.538 738.611C243.538 738.611 242.538 726.211 242.538 724.611C236.038 700.611 223.538 690.611 220.038 684.611C216.538 678.611 200.538 663.111 196.538 659.611C192.538 656.111 178.038 647.611 174.538 645.111C171.038 642.611 157.538 636.611 155.538 636.111C153.538 635.611 145.538 633.111 143.038 630.611C141.038 628.611 142.204 623.111 143.038 620.611C143.538 618.111 145.538 612.611 147.038 609.111C148.538 605.611 153.038 597.111 154.538 594.111C156.038 591.111 167.538 577.611 172.038 574.611C176.838 569.411 197.038 557.111 206.538 551.611C213.038 548.111 233.538 539.111 237.538 537.611C240.738 536.411 276.204 523.778 293.538 517.611C311.704 513.111 349.038 503.911 353.038 503.111C358.038 502.111 419.538 483.611 424.038 482.111C427.638 480.911 488.871 460.278 519.038 450.111L612.038 404.611C631.538 392.611 670.538 368.411 670.538 367.611C670.537 366.611 673.038 366.611 674.038 367.611C676.537 370.111 676.038 405.111 675.538 409.611C671.538 416.111 673.538 418.111 674.038 419.111C674.537 420.111 679.038 423.611 679.038 424.611C681.537 429.111 678.538 444.111 678.038 444.611C677.538 445.111 677.538 448.111 678.538 450.111C679.537 452.111 681.038 457.111 680.038 457.111C679.038 457.111 679.038 459.611 679.538 460.611C680.037 461.611 681.538 467.611 681.038 468.111C680.537 468.611 680.538 471.611 682.538 473.111C684.537 474.611 686.538 485.611 686.538 487.111C686.538 488.611 686.038 489.611 686.538 491.111C687.037 492.611 688.038 499.611 688.038 500.111C688.038 500.611 687.538 504.111 688.038 505.611C688.537 507.111 692.038 511.611 692.538 513.611C693.037 515.611 694.538 524.611 695.038 529.611C695.537 534.611 694.038 559.611 693.538 562.611C693.037 565.611 693.538 586.111 695.038 589.111C696.537 592.111 697.038 592.111 698.038 593.111C706.537 591.111 708.038 580.111 708.038 575.611C708.038 572.011 711.371 567.444 713.038 565.611C714.204 563.944 716.338 560.211 715.538 558.611C715.138 554.611 717.704 548.944 719.038 546.611C719.371 546.278 720.138 545.011 720.538 542.611C720.537 538.111 723.538 531.111 724.538 531.111C725.537 529.111 726.038 526.611 726.038 525.611C725.537 513.611 729.038 511.611 730.038 510.111C730.838 508.911 730.371 507.611 730.038 507.111C727.537 501.111 730.038 493.111 730.038 491.111C732.037 484.111 737.038 484.111 738.538 482.111C740.037 480.111 738.538 476.611 738.538 473.611C738.537 470.611 738.038 465.611 742.038 462.611C745.237 460.211 744.704 456.944 744.038 455.611C743.538 454.278 742.438 451.311 742.038 450.111C741.037 447.111 742.038 442.611 744.038 440.611C746.037 438.611 745.538 435.611 744.038 434.611C742.538 433.611 743.038 427.611 744.038 425.111C746.037 420.611 747.538 416.111 746.538 414.611C745.537 413.111 745.038 399.611 745.538 398.111C745.938 396.911 746.371 394.278 746.538 393.111C747.204 392.111 748.138 389.811 746.538 388.611C744.537 387.111 739.538 368.611 738.538 360.111C737.737 353.311 730.871 337.944 727.538 331.111V327.111C734.538 321.444 749.638 309.111 754.038 305.111C759.537 300.111 808.538 251.611 818.038 240.111C827.537 228.611 867.038 171.611 870.038 171.111C876.037 163.111 901.038 119.111 903.038 115.111C912.537 96.1111 928.038 49.1111 929.038 44.1111C926.037 18.6111 918.538 16.6111 916.038 14.6111C914.038 13.0111 907.871 15.2778 905.038 16.6111C904.704 14.4444 903.838 9.41111 903.038 6.61111L898.038 4.11111C895.871 3.94445 891.038 3.31111 889.038 2.11111C886.537 -0.388889 877.538 2.11111 875.038 2.11111L857.538 6.61111C851.204 8.94444 837.938 13.8111 835.538 14.6111C832.537 15.6111 794.038 38.1111 789.038 40.6111C784.037 43.1111 755.038 59.6111 752.038 60.6111C746.037 65.6111 727.538 71.6111 724.038 71.6111C714.037 74.1111 688.538 81.6111 685.038 84.1111C676.037 85.6111 645.538 100.111 642.038 101.111C638.537 102.111 587.538 126.611 582.538 127.611C577.538 128.611 514.538 165.111 508.038 168.111C501.538 171.111 453.038 199.111 440.538 204.611C428.038 210.111 393.538 237.111 375.538 246.611C357.538 256.111 319.538 287.111 305.038 295.611C290.538 304.111 264.038 331.611 246.038 344.611C228.038 357.611 200.538 388.611 197.038 392.111C177.038 410.111 153.538 452.111 144.538 465.611C135.538 479.111 120.038 520.611 116.038 533.611C112.038 546.611 107.538 585.611 109.038 594.111Z" stroke="#9C00DA" stroke-width="0.5" shape-rendering="crispEdges"/>
</g>
<defs>
<filter id="filter0_d_10_6" x="0.750046" y="0.75" width="932.54" height="777.671" filterUnits="userSpaceOnUse" color-interpolation-filters="sRGB">
<feFlood flood-opacity="0" result="BackgroundImageFix"/>
<feColorMatrix in="SourceAlpha" type="matrix" values="0 0 0 0 0 0 0 0 0 0 0 0 0 0 0 0 0 0 127 0" result="hardAlpha"/>
<feOffset dy="4"/>
<feGaussianBlur stdDeviation="2"/>
<feComposite in2="hardAlpha" operator="out"/>
<feColorMatrix type="matrix" values="0 0 0 0 0 0 0 0 0 0 0 0 0 0 0 0 0 0 0.25 0"/>
<feBlend mode="normal" in2="BackgroundImageFix" result="effect1_dropShadow_10_6"/>
<feBlend mode="normal" in="SourceGraphic" in2="effect1_dropShadow_10_6" result="shape"/>
</filter>
</defs>
</svg>
